<svg id="visual" viewBox="0 0 900 600" width="900" height="600" xmlns="http://www.w3.org/2000/svg" xmlns:xlink="http://www.w3.org/1999/xlink" version="1.1"><path d="M0 379L30 394C60 409 120 439 180 458.5C240 478 300 487 360 497.5C420 508 480 520 540 496.3C600 472.7 660 413.3 720 381C780 348.7 840 343.3 870 340.7L900 338L900 601L870 601C840 601 780 601 720 601C660 601 600 601 540 601C480 601 420 601 360 601C300 601 240 601 180 601C120 601 60 601 30 601L0 601Z" fill="#48e" stroke-linecap="round" stroke-linejoin="miter"></path></svg>